<mxfile host="Electron" modified="2023-08-29T15:02:54.652Z" agent="Mozilla/5.0 (Macintosh; Intel Mac OS X 10_15_7) AppleWebKit/537.36 (KHTML, like Gecko) draw.io/21.6.8 Chrome/114.0.5735.289 Electron/25.5.0 Safari/537.36" etag="dlT7k1-9Uh85c_fnI2v3" version="21.6.8" type="device">
  <diagram id="968WMvgvBu55EJKpM93M" name="Page-1">
    <mxGraphModel dx="1140" dy="826" grid="1" gridSize="10" guides="1" tooltips="1" connect="1" arrows="1" fold="1" page="1" pageScale="1" pageWidth="827" pageHeight="1169" math="0" shadow="0">
      <root>
        <mxCell id="0" />
        <mxCell id="1" parent="0" />
        <mxCell id="14" style="edgeStyle=none;html=1;entryX=0.5;entryY=0;entryDx=0;entryDy=0;fontSize=13;fontColor=#050505;" parent="1" source="3" target="5" edge="1">
          <mxGeometry relative="1" as="geometry" />
        </mxCell>
        <mxCell id="15" value="&lt;b&gt;&lt;font style=&quot;font-size: 12px;&quot;&gt;Lowercasing&lt;/font&gt;&lt;/b&gt;" style="edgeLabel;html=1;align=left;verticalAlign=middle;resizable=0;points=[];fontSize=13;fontColor=#050505;labelPosition=right;verticalLabelPosition=middle;spacingLeft=9;spacingTop=-3;" parent="14" vertex="1" connectable="0">
          <mxGeometry x="-0.1833" y="1" relative="1" as="geometry">
            <mxPoint x="3" y="5" as="offset" />
          </mxGeometry>
        </mxCell>
        <mxCell id="LgpVZG3jUHjyOWBeg-xH-21" value="&lt;b style=&quot;border-color: var(--border-color); color: rgb(0, 0, 0);&quot;&gt;Tokenizing&lt;/b&gt;" style="edgeLabel;html=1;align=left;verticalAlign=middle;resizable=0;points=[];fontSize=13;fontColor=#050505;labelPosition=right;verticalLabelPosition=middle;spacingLeft=9;" vertex="1" connectable="0" parent="14">
          <mxGeometry x="-0.1833" y="1" relative="1" as="geometry">
            <mxPoint x="3" y="-125" as="offset" />
          </mxGeometry>
        </mxCell>
        <mxCell id="LgpVZG3jUHjyOWBeg-xH-22" value="&lt;b&gt;&lt;font style=&quot;font-size: 12px;&quot;&gt;Tokenizing&lt;/font&gt;&lt;/b&gt;" style="edgeLabel;html=1;align=left;verticalAlign=middle;resizable=0;points=[];fontSize=13;fontColor=#050505;labelPosition=right;verticalLabelPosition=middle;spacingLeft=9;spacingTop=-2;" vertex="1" connectable="0" parent="14">
          <mxGeometry x="-0.1833" y="1" relative="1" as="geometry">
            <mxPoint x="3" y="-96" as="offset" />
          </mxGeometry>
        </mxCell>
        <mxCell id="11" value="&lt;font style=&quot;font-size: 13px;&quot;&gt;&lt;br&gt;&lt;/font&gt;" style="edgeStyle=none;html=1;fontColor=#000000;entryX=0.5;entryY=0;entryDx=0;entryDy=0;strokeColor=#000000;labelPosition=right;verticalLabelPosition=middle;align=left;verticalAlign=middle;spacingLeft=9;spacingTop=0;spacingBottom=0;" parent="1" source="4" target="3" edge="1">
          <mxGeometry relative="1" as="geometry">
            <mxPoint as="offset" />
          </mxGeometry>
        </mxCell>
        <mxCell id="4" value="The 2020 paper &#39;Language Models are Few-Shot Learners&#39; by Brown et al. introduces GPT-3, a Transformer-based language model with 175 billion parameters." style="rounded=1;whiteSpace=wrap;html=1;" parent="1" vertex="1">
          <mxGeometry x="70" y="40" width="680" height="60" as="geometry" />
        </mxCell>
        <mxCell id="18" value="" style="edgeStyle=none;html=1;fontSize=13;fontColor=#fc0303;" parent="1" source="6" target="7" edge="1">
          <mxGeometry relative="1" as="geometry" />
        </mxCell>
        <mxCell id="19" value="&lt;font size=&quot;1&quot; color=&quot;#0a0a0a&quot;&gt;&lt;b style=&quot;font-size: 12px;&quot;&gt;Punctuation, Digits, ...&lt;/b&gt;&lt;/font&gt;" style="edgeLabel;html=1;align=left;verticalAlign=middle;resizable=0;points=[];fontSize=13;fontColor=#fc0303;labelPosition=right;verticalLabelPosition=middle;spacingLeft=9;spacingTop=-3;" parent="18" vertex="1" connectable="0">
          <mxGeometry x="-0.1" y="4" relative="1" as="geometry">
            <mxPoint y="3" as="offset" />
          </mxGeometry>
        </mxCell>
        <mxCell id="6" value="[the, &lt;font color=&quot;#0000cc&quot;&gt;2020&lt;/font&gt;, paper, language, models, &lt;font color=&quot;#ff0000&quot;&gt;be&lt;/font&gt;, few, &lt;font color=&quot;#0000cc&quot;&gt;-&lt;/font&gt;, shot, learners, by, brown, et, al, &lt;font color=&quot;#0000cc&quot;&gt;.&lt;/font&gt;, &lt;font color=&quot;#fa0000&quot;&gt;introduce&lt;/font&gt;, &lt;font color=&quot;#0000cc&quot;&gt;gpt-3&lt;/font&gt;, &lt;font color=&quot;#0000cc&quot;&gt;,&lt;/font&gt; a, transformer, &lt;font color=&quot;#0000cc&quot;&gt;-&lt;/font&gt;, &lt;font color=&quot;#f40101&quot;&gt;base&lt;/font&gt;, language, model, with, &lt;font color=&quot;#0000cc&quot;&gt;175&lt;/font&gt;, billion, &lt;font color=&quot;#fa0000&quot;&gt;parameter&lt;/font&gt;, &lt;font color=&quot;#ff0000&quot;&gt;.&lt;/font&gt;]" style="rounded=1;whiteSpace=wrap;html=1;" parent="1" vertex="1">
          <mxGeometry x="70" y="340" width="680" height="60" as="geometry" />
        </mxCell>
        <mxCell id="20" value="" style="edgeStyle=none;html=1;fontSize=13;fontColor=#0a0a0a;" parent="1" source="7" target="8" edge="1">
          <mxGeometry relative="1" as="geometry" />
        </mxCell>
        <mxCell id="21" value="&lt;b&gt;&lt;font style=&quot;font-size: 12px;&quot;&gt;Stopwords&lt;/font&gt;&lt;/b&gt;" style="edgeLabel;html=1;align=left;verticalAlign=middle;resizable=0;points=[];fontSize=13;fontColor=#0a0a0a;spacingLeft=9;labelPosition=right;verticalLabelPosition=middle;spacingTop=-2;" parent="20" vertex="1" connectable="0">
          <mxGeometry x="-0.18" relative="1" as="geometry">
            <mxPoint x="4" y="4" as="offset" />
          </mxGeometry>
        </mxCell>
        <mxCell id="7" value="[&lt;font color=&quot;#0000cc&quot;&gt;the&lt;/font&gt;, paper, language, models, &lt;font color=&quot;#0000cc&quot;&gt;be&lt;/font&gt;, &lt;font color=&quot;#0000cc&quot;&gt;few&lt;/font&gt;, shot, learners, &lt;font color=&quot;#0000cc&quot;&gt;by&lt;/font&gt;, brown, et, al, introduce, &lt;font color=&quot;#0000cc&quot;&gt;a&lt;/font&gt;, transformer, base, language, model, &lt;font color=&quot;#0000cc&quot;&gt;with&lt;/font&gt;, billion, parameter]" style="rounded=1;whiteSpace=wrap;html=1;" parent="1" vertex="1">
          <mxGeometry x="70" y="440" width="680" height="60" as="geometry" />
        </mxCell>
        <mxCell id="8" value="[paper, language, models, shot, learners, brown, et, al, introduce, transformer, base, language, model, billion, parameter]" style="rounded=1;whiteSpace=wrap;html=1;" parent="1" vertex="1">
          <mxGeometry x="70" y="540" width="680" height="60" as="geometry" />
        </mxCell>
        <mxCell id="16" value="" style="edgeStyle=none;html=1;fontSize=13;fontColor=#050505;" parent="1" source="5" target="6" edge="1">
          <mxGeometry relative="1" as="geometry" />
        </mxCell>
        <mxCell id="17" value="&lt;b&gt;&lt;font style=&quot;font-size: 12px;&quot;&gt;Lemmatizing&lt;/font&gt;&lt;/b&gt;" style="edgeLabel;html=1;align=left;verticalAlign=middle;resizable=0;points=[];fontSize=13;fontColor=#050505;spacingLeft=8;labelPosition=right;verticalLabelPosition=middle;spacingTop=1;" parent="16" vertex="1" connectable="0">
          <mxGeometry x="0.05" y="2" relative="1" as="geometry">
            <mxPoint x="2" y="-2" as="offset" />
          </mxGeometry>
        </mxCell>
        <mxCell id="5" value="[&lt;font color=&quot;#fa0000&quot;&gt;the&lt;/font&gt;, 2020, paper, &lt;font color=&quot;#fa0000&quot;&gt;language&lt;/font&gt;, &lt;font color=&quot;#fe0101&quot;&gt;models&lt;/font&gt;, are, &lt;font color=&quot;#f90101&quot;&gt;few&lt;/font&gt;, -, &lt;font color=&quot;#ff0000&quot;&gt;shot&lt;/font&gt;, &lt;font color=&quot;#fc0303&quot;&gt;learners&lt;/font&gt;, by, &lt;font color=&quot;#f40101&quot;&gt;brown&lt;/font&gt;, et, al, ., introduces, &lt;font color=&quot;#fa0000&quot;&gt;gpt&lt;/font&gt;-3, , a, transformer, -, based, language, model, with, 175, billion, parameters, .]" style="rounded=1;whiteSpace=wrap;html=1;" parent="1" vertex="1">
          <mxGeometry x="70" y="240" width="680" height="60" as="geometry" />
        </mxCell>
        <mxCell id="3" value="[The, 2020, paper, Language, Models, are, Few, -, Shot, Learners, by, Brown, et, al, ., introduces, GPT-3, , a, Transformer, -, based, language, model, with, 175, billion, parameters, .]" style="rounded=1;whiteSpace=wrap;html=1;" parent="1" vertex="1">
          <mxGeometry x="70" y="140" width="680" height="60" as="geometry" />
        </mxCell>
      </root>
    </mxGraphModel>
  </diagram>
</mxfile>
